<?xml version="1.0" encoding="UTF-8" standalone="no"?><!DOCTYPE svg PUBLIC "-//W3C//DTD SVG 1.1//EN" "http://www.w3.org/Graphics/SVG/1.1/DTD/svg11.dtd"><svg width="100%" height="100%" viewBox="0 0 3334 3334" version="1.1" xmlns="http://www.w3.org/2000/svg" xmlns:xlink="http://www.w3.org/1999/xlink" xml:space="preserve" xmlns:serif="http://www.serif.com/" style="fill-rule:evenodd;clip-rule:evenodd;stroke-linecap:round;stroke-linejoin:round;"><g id="fire"><path id="secondary" d="M1666.67,3166.67c-650,-0 -1166.67,-333.334 -1166.67,-1166.67c-0,-833.333 833.333,-833.333 833.333,-1833.33c500,333.333 728.334,683.333 833.334,1333.33c169.377,-119.375 288.286,-297.738 333.333,-500c166.667,166.667 333.333,666.667 333.333,1000c0,523.333 -213.333,1166.67 -1166.67,1166.67Z" style="fill:#e25822;fill-rule:nonzero;"/><path id="primary" d="M1666.67,3166.67c-650,-0 -1166.67,-333.334 -1166.67,-1166.67c-0,-833.333 833.333,-833.333 833.333,-1833.33c500,333.333 728.334,683.333 833.334,1333.33c169.377,-119.375 288.286,-297.738 333.333,-500c166.667,166.667 333.333,666.667 333.333,1000c0,523.333 -213.333,1166.67 -1166.67,1166.67Z" style="fill:none;fill-rule:nonzero;stroke:#000;stroke-width:333.33px;"/></g></svg>